<svg width="48" height="48" viewBox="0 0 48 48" fill="none" xmlns="http://www.w3.org/2000/svg">
<g clip-path="url(#clip0_3_8)">
<path d="M48 24C48 37.2548 37.2548 48 24 48C10.7452 48 0 37.2548 0 24C0 10.7452 10.7452 0 24 0C37.2548 0 48 10.7452 48 24ZM24.8602 17.718C22.5258 18.6889 17.8604 20.6985 10.8639 23.7467C9.72779 24.1985 9.13264 24.6405 9.07846 25.0727C8.98689 25.8031 9.90155 26.0907 11.1471 26.4823C11.3165 26.5356 11.492 26.5908 11.672 26.6493C12.8974 27.0476 14.5458 27.5136 15.4027 27.5321C16.18 27.5489 17.0476 27.2285 18.0054 26.5708C24.5424 22.1581 27.9169 19.9277 28.1287 19.8796C28.2782 19.8457 28.4853 19.8031 28.6257 19.9278C28.766 20.0525 28.7522 20.2887 28.7373 20.3521C28.6467 20.7384 25.0564 24.0763 23.1984 25.8036C22.6191 26.3421 22.2083 26.7241 22.1243 26.8114C21.9361 27.0068 21.7444 27.1916 21.5601 27.3693C20.4217 28.4667 19.5679 29.2897 21.6073 30.6337C22.5874 31.2795 23.3716 31.8136 24.154 32.3464C25.0085 32.9282 25.8607 33.5086 26.9633 34.2314C27.2443 34.4155 27.5126 34.6068 27.7739 34.7931C28.7683 35.502 29.6616 36.1389 30.7653 36.0373C31.4066 35.9783 32.069 35.3753 32.4055 33.5768C33.2005 29.3264 34.7634 20.117 35.1246 16.3221C35.1562 15.9896 35.1164 15.5641 35.0844 15.3773C35.0525 15.1905 34.9857 14.9243 34.7429 14.7273C34.4553 14.494 34.0114 14.4448 33.8128 14.4483C32.9102 14.4642 31.5252 14.9458 24.8602 17.718Z" fill="#F0F0F0"/>
</g>
<defs>
<clipPath id="clip0_3_8">
<rect width="48" height="48" fill="white"/>
</clipPath>
</defs>
</svg>
