<svg width="48" height="48" viewBox="0 0 48 48" fill="none" xmlns="http://www.w3.org/2000/svg">
<path d="M38.6625 28.7438C37.9125 26.3344 37.05 24.3094 35.7234 20.9953C35.9297 12.2906 32.3109 5.25 23.9765 5.25C15.5484 5.25 12.0093 12.4312 12.2343 20.9953C10.9031 24.3141 10.0453 26.325 9.29529 28.7438C7.70154 33.8766 8.21716 36 8.61091 36.0469C9.45466 36.15 11.8968 32.1844 11.8968 32.1844C11.8968 34.4812 13.0781 37.4766 15.6375 39.6375C14.4 40.0172 11.6203 41.0391 12.2812 42.1594C12.8156 43.0641 21.4781 42.7359 23.9765 42.4547C26.475 42.7359 35.1375 43.0641 35.6718 42.1594C36.3328 41.0438 33.5484 40.0172 32.3156 39.6375C34.875 37.4719 36.0562 34.4766 36.0562 32.1844C36.0562 32.1844 38.4984 36.15 39.3422 36.0469C39.7406 35.9953 40.2562 33.8719 38.6625 28.7438Z" fill="#E3E3E3"/>
</svg>
